<svg version="1.1" id="Layer_1" xmlns="http://www.w3.org/2000/svg" xmlns:xlink="http://www.w3.org/1999/xlink" x="0px" y="0px"
	 viewBox="0 0 612 120.6" style="enable-background:new 0 0 612 120.6;" xml:space="preserve">
<style type="text/css">
	.st0{fill:none;stroke:#000000;stroke-width:0.625;stroke-miterlimit:10;}
</style>
<line class="st0" x1="305.4" y1="103.7" x2="305.4" y2="18.7"/>
<g>
	<polygon points="572.9,47.4 561.5,61.9 560.1,61.9 565.9,47.4 	"/>
	<path d="M351.6,82.8c-3.9,0-7.2-0.8-9.8-2.2l-2.5,2.2h-1.1l-0.8-14.2h1.4c4.2,9.2,8.9,12.3,13.4,12.3c4.7,0,7.2-3.1,7.2-7.2
		c0-3.9-1.4-5.9-7.5-8.4c-2-0.8-4.5-1.7-6.4-2.8c-4.5-2.2-7-5.9-7-10.6c0-7.8,6.7-12.3,13.1-12.3c3.3,0,5.3,0.8,7.5,2.2l2.5-2.2h1.1
		l1.1,12.5l-1.4,0.3c-3.6-7.2-7.2-10.6-11.7-10.6c-3.6,0-6.1,2.5-6.1,6.4c0,3.1,1.4,5.3,5.9,7.2c2.2,1.1,5,2,7.2,3.1
		c5.3,2.5,7.8,5.9,7.8,10.6C365.9,77.8,358.6,82.8,351.6,82.8"/>
	<path d="M385.9,53.6c-4.5,0-7.2,5-7.2,13.9c0,8.6,3.1,13.7,7.5,13.7c4.7,0,7.2-5,7.2-13.9C393.4,58.6,390.6,53.6,385.9,53.6
		 M385.6,83.1c-9.8,0-14.8-7-14.8-15.6c0-8.1,5.6-15.6,15.6-15.6c9.8,0,14.5,7,14.5,15.6C401,75.3,395.7,83.1,385.6,83.1"/>
	<path d="M414.9,82.8c-5,0-6.7-2.5-6.7-7.2V56.3h-4.7v-0.8l5.9-4.7l4.7-6.1h0.8V53h9.8v3.3h-9.8v16.7c0,2.5,0.3,4.2,1.7,5
		c1.1,0.8,2.5,1.1,4.7,1.1c1.1,0,2.2,0,3.6,0V80C422.7,81.4,418.5,82.8,414.9,82.8"/>
	<path d="M445.3,56.6c-2.5,0-4.5,0.6-6.7,1.7v21.5l3.6,1.4V82h-14.5v-0.8l4.2-1.4v-39l-4.5-2.8v-0.6l11.1-3.1l0.3,0.3v22.6h0.3
		c3.9-3.6,7.2-5.3,10.9-5.3c5.9,0,8.4,4.5,8.4,8.9v18.9l4.2,1.4V82H448v-0.8l3.6-1.4V63.3C450.8,59.1,449.2,56.6,445.3,56.6"/>
	<path d="M484.3,63c-0.3-6.1-2-9.5-5.9-9.5c-3.6,0-6.7,3.9-7,10L484.3,63z M471.5,65.3c0,8.1,2.2,13.7,9.8,13.7c3.3,0,5.9-0.6,9.8-2
		l0.3,0.8c-3.9,3.3-8.4,5.6-12.5,5.6c-8.9,0-14.8-6.1-14.8-15c0-9.2,7-16.2,14.8-16.2c8.6,0,12.5,5.9,12.5,13.4h-19.8V65.3z"/>
	<path d="M509.9,56.3c-2,0-3.6,0.3-5,1.1v20.6c2,2,4.5,3.1,7,3.1c3.9,0,7-3.3,7-12.5C518.8,60.2,515.5,56.3,509.9,56.3 M508.8,83.1
		c-3.3,0-7.8-0.8-10.9-1.7V40.7l-4.5-2.8v-0.6l11.1-3.1l0.3,0.3v21.7h0.3c2.2-2.2,5.3-4.2,9.5-4.2c6.1,0,11.7,5.6,11.7,14.8
		C526.1,75.9,519.1,83.1,508.8,83.1"/>
	<path d="M543.9,83.9c-3.3,8.1-6.1,11.4-10.3,11.4c-3.3,0-5-2-5-4.2c0-2,1.7-3.6,3.9-3.6c2.2,0,3.6,1.1,5,3.1
		c1.1-1.4,2.8-3.6,3.6-5.6l1.1-2.5L530.8,55l-3.9-1.7v-0.8h15.9v0.8l-4.2,1.7l7,18.9h0.3l6.4-18.4l-3.6-2v-0.8h11.1v0.8l-4.2,2.2
		L543.9,83.9z"/>
	<path d="M580.7,83.1c-3.6,0-6.7-0.6-9.5-1.7v-8.6h1.4c3.6,6.1,6.1,8.4,9.5,8.4c3.1,0,5-2,5-5c0-3.3-3.3-4.7-7.2-6.1
		c-4.2-1.7-8.4-3.6-8.4-8.9c0-5,4.5-9.2,11.1-9.2c2.5,0,6.1,0.6,7.8,1.1l0.3,7.8l-1.1,0.3c-3.1-5.3-5.3-7.2-8.1-7.2
		s-4.5,1.7-4.5,4.2c0,3.3,3.6,4.7,7.2,6.1c4.2,1.7,8.4,3.6,8.4,9.2C592.4,79.2,587.1,83.1,580.7,83.1"/>
</g>
<g>
	<path d="M19.8,69.7c3.1,4.7,8.9,9.2,16.4,13.1c22.6,12,63,20.6,109.2,20.6c35.1,0,67.2-5,90.3-12.8c11.7-3.9,20.9-8.4,27.6-13.4
		c3.3-2.5,5.9-5,7.8-7.8c1.7-2.8,2.8-5.6,2.8-8.6l0,0c0-3.1-1.1-5.9-2.8-8.6c-3.1-4.7-8.9-9.2-16.4-13.1
		c-22.6-12-63-20.6-109.2-20.6c-35.1,0-67.2,5-90.3,12.8c-11.7,3.9-20.9,8.4-27.6,13.4c-3.3,2.5-5.9,5-7.8,7.8
		C18.1,55.2,17,58,17,61.1v0.3l0,0C17,64.4,17.8,67.2,19.8,69.7 M52.9,48.3c7.5-6.4,20.1-12.5,35.9-16.7s35.4-7,56.3-7l0,0l0,0
		c27.9,0,52.9,4.7,71.1,11.7c8.9,3.6,16.4,7.5,21.2,12c5,4.2,7.5,8.6,7.5,12.8l0,0l0,0c0,4.2-2.5,8.6-7.5,13.1
		c-7.5,6.4-20.1,12.5-35.9,16.7s-35.4,7-56,7l0,0l0,0l0,0c-27.9,0-52.9-4.7-71.1-11.7c-8.9-3.6-16.4-7.5-21.2-12
		c-5-4.2-7.5-8.6-7.5-13.1l0,0l0,0C45.7,56.9,48.2,52.4,52.9,48.3"/>
	<path d="M204,53.6L204,53.6c0.8,0,1.7,0,2.2,0.3c0.6,0.3,0.6,0.8,0.6,1.4c0,0.3,0,0.3,0,0.6c-0.3,1.1-0.6,1.4-1.4,1.7
		c-0.8,0.3-1.4,0.3-2,0.3c-0.3,0-0.6,0-0.6,0c-1.4,0-2.5,0.8-3.3,2.2l-12.3,27v0.3c0,0,0,0,0.3,0.3c0.3,0,0.6,0.3,0.8,0.3
		c0.8,0.3,1.7,0.3,1.7,0.3l0,0c0.8,0,1.7,0,2,0.6c0,0,0.3,0,0.3,1.7c-0.3,1.1-0.3,2-1.4,2h-0.6l0,0c0,0-17.6,0-18.7,0.3l0,0l0,0l0,0
		c-0.6,0-1.1,0-1.4-0.3c-0.6,0-0.6-0.6-0.3-1.1c0,0,0.3-1.1,0.3-1.4c0.6-1.1,0.8-1.4,1.7-1.7c0.8-0.3,2.5-0.3,3.3-0.3
		c0.6,0,1.1-0.3,1.7-0.8c0.6-0.6,0.8-1.1,1.1-1.4c0.3-0.3,0.3-0.3,0.3-0.3l8.1-18.1L155.8,92c-0.8,0.6-1.4,0.8-2,0.8l0,0
		c-0.8,0-1.4-0.3-1.4-0.8c-0.3-0.3-0.3-0.6-0.3-0.8l0,0l-5.6-25.6l-11.4,21.7v0.3c0,0,0,0,0.3,0.3c0.3,0,0.6,0.3,1.1,0.3
		c0.8,0.3,2.2,0.3,2.8,0.3c0.6,0,1.1,0,1.7,0.6c0.6,0.6,0.8,1.1,0.8,1.7c0,0.3,0,0.6-0.3,0.8c-0.3,0.6-0.6,0.8-1.1,0.8
		c-0.6,0-0.8,0-1.4,0L122.9,92c-0.8,0-1.4,0-2,0c-0.6,0-0.8,0-1.4-0.6c-0.3-0.3-0.6-0.6-0.6-0.8c0-0.3,0-0.6,0.3-0.8
		c0.3-0.6,0.6-1.1,1.4-1.4s2-0.6,3.6-0.6c0.3,0,0.6,0,0.8,0c1.7,0,2.8-1.4,2.8-1.7l0,0l5.6-9.2c-0.6,0-1.1,0-1.7,0
		c-5,0-8.4-1.4-8.4-1.4c-3.9-1.7-6.7-5.9-8.9-9.5c-2-3.6-3.3-7-3.6-7.2c-0.6-1.1-1.7-1.4-2.2-1.7c-0.3,0-0.3,0-0.3,0l-5.3-0.3
		c-0.8,0-1.1,0-1.1,0.3c0,0,0,0-0.3,0.3l-6.1,11.4c0,0.3-0.3,0.6-0.3,0.6c0,0.3,0,0.6,0.3,0.8c0.3,0.3,0.6,0.6,1.1,0.6
		c0.8,0.3,2.2,0.6,2.8,0.6c0.6,0,1.1,0.3,1.7,0.6c0.3,0.3,0.6,0.8,0.6,1.4c0,0.8-0.6,1.7-1.4,2.2c-0.6,0.3-0.8,0.3-0.8,0.3
		l-23.4-0.3c-0.3,0-0.6,0-1.1,0c-0.3,0-0.8-0.6-0.8-1.1c0-0.6,0.3-0.8,0.6-1.4c0.6-0.8,1.4-1.4,2.2-1.4c0.8-0.3,2,0,3.1,0
		c2.5,0,3.6-1.7,4.2-2.8l14.8-30.6c0.3-0.8,0.6-1.4,0.6-1.7c0-0.3,0-0.3-0.3-0.6c0,0-0.3-0.3-0.6-0.3c-1.1,0-2.2-0.3-2.8-0.3
		c-0.8,0-1.1-0.3-1.7-0.6c-0.6-0.3-0.8-0.8-0.8-1.4c0-0.3,0-0.3,0-0.3c0.3-0.8,0.6-1.4,1.1-1.7c0.6-0.3,1.1-0.3,1.7-0.6l0,0h19.5
		c7.8,0,12,0.3,14.8,0.8c2.8,0.6,3.9,1.4,5.3,2.2c2.5,2,3.3,4.2,3.3,6.1c0,2.2-1.1,3.9-1.1,4.2c-2,3.6-6.4,6.1-10.3,7.8
		c-3.3,1.4-6.4,2.2-7,2.5c0,0.3,0.3,1.1,0.6,2s0.8,2,1.4,2.8c1.1,2,2.2,3.6,2.2,3.6c5.6,8.6,8.9,9.2,9.8,9.2l0,0l7.8-13.7
		c0.3-0.3,0.3-0.6,0.3-0.8c0-0.3,0-0.3-0.3-0.3c-0.3,0-0.6-0.3-0.8-0.3c-0.8-0.3-2-0.3-2.8-0.3c-0.6,0-1.1,0-1.7-0.3
		c-0.3-0.3-0.8-0.8-0.8-1.4c0-0.8,0.6-1.1,0.8-1.7c0.6-0.6,1.4-0.6,2-0.6h12.3c0.8,0,1.1,0,1.7,0.3c0.6,0.3,0.8,0.8,0.8,1.1
		c0,0.6-0.3,0.8-0.3,1.1c-0.3,0.3-0.6,0.6-0.6,0.6s-0.3,0.3-0.3,0.6c0,0.3,0,0.8,0,1.1c0,0.3,0,0.8,0,1.1c0,0.3,0,0.3,0,0.6
		l5.9,22.3l32.9-27c0.8-0.8,1.1-1.1,1.7-1.1l0,0L204,53.6 M110.1,52.2c2.2,0,4.2,0,5-0.3l0,0l0,0c0,0,0,0,0.3,0s0.6,0,1.1-0.3
		c0.8-0.3,2-0.6,3.3-1.1c2.5-1.1,5.6-3.3,7.2-7.2l0,0l0,0c0,0,0,0,0-0.3c0-0.3,0.3-0.3,0.3-0.6c0.3-0.6,0.3-1.1,0.3-2
		s-0.3-1.7-0.8-2.5c-0.8-0.8-2-1.4-4.5-1.7c-0.3,0-2.2,0-4.5,0c-1.4,0-2.8,0-4.2,0c-1.1,0-2.2,0.3-2.5,0.6l-7.2,15
		C105.3,52.2,107.6,52.2,110.1,52.2"/>
</g>
</svg>
